<?xml version="1.0" standalone="no"?><!DOCTYPE svg PUBLIC "-//W3C//DTD SVG 1.1//EN" "http://www.w3.org/Graphics/SVG/1.1/DTD/svg11.dtd"><svg t="1647579597885" class="icon" viewBox="0 0 1079 1024" version="1.1" xmlns="http://www.w3.org/2000/svg" p-id="2245" xmlns:xlink="http://www.w3.org/1999/xlink" width="210.7421875" height="200"><defs><style type="text/css"></style></defs><path d="M 630.784 536.243 c 0 -113.877 -92.5355 -206.182 -206.686 -206.182 s -206.677 92.3051 -206.677 206.182 s 92.5269 206.165 206.677 206.165 S 630.784 650.121 630.784 536.243 Z m 374.502 -239.326 v 481.425 c 0 16.2987 -6.39147 30.1056 -19.1744 41.4379 c -11.3664 9.216 -24.5077 13.824 -39.4155 13.824 c -13.4912 0 -25.5744 -4.2496 -36.2155 -12.7488 L 766.643 710.332 v 38.2464 c 0 33.2971 -11.8955 61.824 -35.6779 85.5552 c -23.808 23.7312 -52.3947 35.6011 -85.7685 35.6011 H 195.627 c -33.3824 0 -61.9605 -11.8699 -85.7515 -35.6011 c -23.7995 -23.7312 -35.6949 -52.2581 -35.6949 -85.5552 V 331.998 c 0 -33.2971 11.904 -61.8155 35.6949 -85.5637 c 23.7909 -23.7312 52.3691 -35.6011 85.7515 -35.6011 h 449.57 c 33.3739 0 61.9691 11.8699 85.7685 35.6011 c 23.7824 23.7483 35.6779 52.2581 35.6779 85.5637 v 32.9387 l 143.821 -110.541 c 10.6581 -8.49067 22.7413 -12.7317 36.2325 -12.7317 c 16.3413 0 30.1739 5.49547 41.5317 16.4608 c 11.3749 10.9995 17.0581 23.9275 17.0581 38.7925 Z m -639.095 107.349 l 172.962 129.399 l -172.962 129.408 V 404.267 Z" fill="#e63938" p-id="2246" data-spm-anchor-id="a313x.7781069.0.i4" class="selected"></path></svg>