<?xml version="1.0" standalone="no"?><!DOCTYPE svg PUBLIC "-//W3C//DTD SVG 1.1//EN" "http://www.w3.org/Graphics/SVG/1.1/DTD/svg11.dtd"><svg t="1649338828825" class="icon" viewBox="0 0 1024 1024" version="1.1" xmlns="http://www.w3.org/2000/svg" p-id="2172" xmlns:xlink="http://www.w3.org/1999/xlink" width="200" height="200"><defs><style type="text/css">@font-face { font-family: feedback-iconfont; src: url("//at.alicdn.com/t/font_1031158_u69w8yhxdu.woff2?t=1630033759944") format("woff2"), url("//at.alicdn.com/t/font_1031158_u69w8yhxdu.woff?t=1630033759944") format("woff"), url("//at.alicdn.com/t/font_1031158_u69w8yhxdu.ttf?t=1630033759944") format("truetype"); }
</style></defs><path d="M807.618323 192.807261 135.379828 192.807261c-34.028001 0-56.018851 21.021779-56.018851 53.55166L79.360977 687.017082c0 32.0653 21.458731 51.978838 56.018851 51.978838l98.035804 0c16.029068 0 28.009937 20.883633 28.009937 39.552831L261.425569 909.811308l178.331571-155.223271c2.448772-2.12029 4.840238-4.576225 7.249101-7.071046 3.281743-3.391237 8.233522-8.520047 10.489912-8.520047l350.123192 0c34.232662 0 56.019875-19.913539 56.019875-51.978838L863.639221 246.358921C863.638197 213.82904 841.332169 192.807261 807.618323 192.807261zM835.629283 687.017082c0 10.29753-3.363607 23.976064-28.010961 23.976064L457.49513 710.993147c-14.141068 0-23.674189 9.853415-30.622438 17.061584-1.832741 1.895163-3.638877 3.781116-5.498224 5.402033L289.434483 848.294233l0-69.743434c0-32.627095-22.511713-67.557652-56.018851-67.557652l-98.035804 0c-28.009937 0-28.009937-18.054191-28.009937-23.976064L107.369891 246.358921c0-21.103644 15.237029-25.541723 28.009937-25.541723l672.238494 0c18.24555 0 28.010961 8.595772 28.010961 25.541723L835.629283 687.017082 835.629283 687.017082zM919.659095 80.761372 247.420601 80.761372c-34.028001 0-56.019875 21.027919-56.019875 53.5578l0 30.478152c0 7.735172 6.263657 14.005992 14.005992 14.005992 7.740288 0 14.005992-6.27082 14.005992-14.005992L219.41271 134.319172c0-21.109784 15.237029-25.541723 28.009937-25.541723l672.238494 0c18.24555 0 28.010961 8.595772 28.010961 25.541723l0 440.658162c0 18.340717-11.570523 37.972846-28.010961 37.972846l-25.670659 0c-7.739265 0-14.004969 6.277984-14.004969 14.011108 0 7.735172 6.262634 14.005992 14.004969 14.005992l25.670659 0c34.288944 0 56.019875-34.254152 56.019875-65.989947L975.681016 134.319172C975.67897 101.789291 953.371918 80.761372 919.659095 80.761372z" p-id="2173" fill="#1296db"></path></svg>