<?xml version="1.0" standalone="no"?><!DOCTYPE svg PUBLIC "-//W3C//DTD SVG 1.1//EN" "http://www.w3.org/Graphics/SVG/1.1/DTD/svg11.dtd"><svg t="1647260924751" class="icon" viewBox="0 0 1024 1024" version="1.1" xmlns="http://www.w3.org/2000/svg" p-id="5873" xmlns:xlink="http://www.w3.org/1999/xlink" width="200" height="200"><defs><style type="text/css"></style></defs><path d="M672 412.8L796.8 288l22.4 144c0 6.4 3.2 12.8 9.6 19.2 6.4 6.4 16 9.6 28.8 9.6 16-3.2 28.8-19.2 25.6-35.2L848 192l-220.8-44.8c-16-3.2-35.2 6.4-38.4 25.6-3.2 16 6.4 35.2 25.6 38.4L755.2 240 630.4 364.8c-128-112-320-105.6-441.6 16-128 128-128 332.8 0 460.8s332.8 128 460.8 0c112-118.4 121.6-300.8 22.4-428.8z m-441.6 384C128 694.4 128 528 230.4 428.8s268.8-102.4 368 0l3.2 3.2v3.2c96 102.4 92.8 262.4-6.4 361.6-99.2 99.2-262.4 99.2-364.8 0z" p-id="5874" fill="#1296db"></path></svg>