<?xml version="1.0" standalone="no"?><!DOCTYPE svg PUBLIC "-//W3C//DTD SVG 1.1//EN" "http://www.w3.org/Graphics/SVG/1.1/DTD/svg11.dtd"><svg t="1647249384937" class="icon" viewBox="0 0 1024 1024" version="1.1" xmlns="http://www.w3.org/2000/svg" p-id="1542" xmlns:xlink="http://www.w3.org/1999/xlink" width="200" height="200"><defs><style type="text/css"></style></defs><path d="M547.571147 426.264337 382.442272 665.965627c-3.195785 4.79419-194.425108-239.169171-194.425108-239.169171-20.240997-30.894637-30.894637-66.583464-30.894637-102.805434 0-108.664885 94.282317-197.620893 210.405057-197.620893s210.405057 88.956008 210.405057 197.620893C577.932642 360.212992 567.812143 395.368676 547.571147 426.264337zM871.435279 537.591865 574.204737 163.65736C484.715587 51.79669 317.989331 31.022551 201.867614 119.978559c-117.720122 89.48915-138.494261 255.682263-46.342468 369.141338L462.876186 866.250186c90.02127 110.263289 254.083859 124.644835 365.94453 32.493042C939.617148 808.188816 958.25974 646.789892 871.435279 537.591865z" p-id="1543" fill="#1296db"></path></svg>