<?xml version="1.0" standalone="no"?><!DOCTYPE svg PUBLIC "-//W3C//DTD SVG 1.1//EN" "http://www.w3.org/Graphics/SVG/1.1/DTD/svg11.dtd"><svg t="1647260977594" class="icon" viewBox="0 0 1024 1024" version="1.1" xmlns="http://www.w3.org/2000/svg" p-id="7095" xmlns:xlink="http://www.w3.org/1999/xlink" width="200" height="200"><defs><style type="text/css"></style></defs><path d="M726.541156 416.284444a429.795556 429.795556 0 0 0-24.177778-149.902222 133.831111 133.831111 0 1 0-112.213334-104.96 214.186667 214.186667 0 0 0-118.186666 16.924445C235.732267 272.924444 205.154489 495.786667 175.714489 711.111111Q172.443378 734.862222 168.887822 758.328889A21.333333 21.333333 0 0 0 190.221156 782.222222h75.235555v220.444445a21.333333 21.333333 0 0 0 21.333333 21.333333h64.284445a21.333333 21.333333 0 1 0 0-42.666667h-42.666667V782.222222h150.044445v220.444445a21.333333 21.333333 0 0 0 21.333333 21.333333h64.284444a21.333333 21.333333 0 0 0 0-42.666667h-42.666666V782.222222h75.235555a21.333333 21.333333 0 0 0 20.764445-26.311111l-76.515556-321.422222 55.608889-28.444445 11.377778 67.982223a21.333333 21.333333 0 0 0 7.537778 12.942222L745.314489 611.555556h-24.177778a21.333333 21.333333 0 0 0 0 42.666666h42.666667v348.444445a21.333333 21.333333 0 0 0 42.666666 0v-369.777778a21.333333 21.333333 0 0 0 0-4.408889l39.253334-26.168889a21.333333 21.333333 0 0 0 4.835555-31.146667zM721.136711 42.666667a91.306667 91.306667 0 1 1-50.631111 167.111111 145.493333 145.493333 0 0 0-23.324444-22.613334A91.164444 91.164444 0 0 1 721.136711 42.666667z m-107.662222 329.102222A21.333333 21.333333 0 0 0 582.896711 355.555556l-96.568889 48.213333a21.333333 21.333333 0 0 0-11.235555 24.035555L549.332267 739.555556H214.8256l3.128889-22.897778c29.155556-213.333333 56.888889-413.866667 270.222222-499.057778 54.471111-21.76 97.706667-21.902222 128.995556 0a134.826667 134.826667 0 0 0 24.177777 23.324444c47.928889 63.146667 42.666667 180.195556 42.666667 181.617778a21.333333 21.333333 0 0 0 4.693333 14.222222l113.777778 142.222223-15.786666 10.524444-158.435556-129.137778z" p-id="7096" fill="#1296db"></path></svg>