<?xml version="1.0" standalone="no"?><!DOCTYPE svg PUBLIC "-//W3C//DTD SVG 1.1//EN" "http://www.w3.org/Graphics/SVG/1.1/DTD/svg11.dtd"><svg t="1647260882583" class="icon" viewBox="0 0 1024 1024" version="1.1" xmlns="http://www.w3.org/2000/svg" p-id="4388" xmlns:xlink="http://www.w3.org/1999/xlink" width="200" height="200"><defs><style type="text/css"></style></defs><path d="M780.801528 0 271.912831 0c-48.902497 0-88.672759 39.767629-88.672759 88.645826l0 77.581324c0 48.882348 39.771274 88.647851 88.672759 88.647851l508.889701 0c48.902497 0 88.670734-39.766617 88.670734-88.647851L869.473266 88.645847C869.472262 39.767528 829.705038 0 780.801528 0zM810.651196 166.2272c0 16.44657-13.383253 29.830228-29.849668 29.830228L271.912831 196.057428c-16.469453 0-29.852706-13.383658-29.852706-29.830228L242.060125 88.645847c0-16.445557 13.383253-29.830228 29.852706-29.830228l508.889701 0c16.466415 0 29.849668 13.384671 29.849668 29.830228L810.652201 166.227171zM780.801528 274.483659 271.912831 274.483659c-48.902497 0-88.672759 39.762567-88.672759 88.644813l0 548.129516c0 48.882348 39.771274 88.647851 88.672759 88.647851l508.889701 0c48.902497 0 88.670734-39.766617 88.670734-88.647851L869.473266 363.128497C869.472262 314.246226 829.705038 274.483659 780.801528 274.483659zM810.651196 911.258021c0 16.447582-13.383253 29.830228-29.849668 29.830228L271.912831 941.088248c-16.469453 0-29.852706-13.383658-29.852706-29.830228L242.060125 363.128497c0-16.444545 13.383253-29.830228 29.852706-29.830228l508.889701 0c16.466415 0 29.849668 13.385683 29.849668 29.830228L810.652201 911.258014zM631.75954 458.190516c-7.752052-1.35892-15.508154-2.049974-23.070053-2.049974-34.810978 0-63.494006 14.771942-84.287277 33.889775-20.794284-19.117834-49.494525-33.889775-84.262977-33.889775-7.564835 0-15.321038 0.691054-23.074103 2.049974-45.262746 7.927828-79.671039 38.301482-92.05958 81.265475-14.054157 48.736644 2.220079 103.134461 41.45299 138.581512 44.384475 40.112599 93.61078 88.990897 120.052466 115.260452 7.905856 7.869101 13.899341 13.807707 17.232498 17.021283l20.428962 19.665209 20.390587-19.665209c3.217829-3.100274 8.788278-8.634069 16.162858-15.929469 26.266619-26.076263 75.190379-74.612527 121.391135-116.352266 39.290625-35.524914 55.601212-89.997658 41.530955-138.770754C711.278699 496.40492 676.930145 466.09708 631.75954 458.190516zM642.674745 634.40463c-44.460314 40.186514-91.007153 86.117228-118.51939 113.400733-27.514262-27.340106-74.904035-74.227056-118.254309-113.400733-22.324322-20.171171-32.128475-51.781229-24.372372-78.654861 3.579-12.434611 14.282787-34.127518 45.683757-39.621926 4.423958-0.776106 8.770053-1.168665 12.925892-1.168665 35.765189 0 55.409944 30.07921 58.989045 36.111778l25.333671 42.686761 25.272919-42.72625c3.561888-6.02052 23.148929-36.07229 58.955631-36.07229 4.153814 0 8.498896 0.393571 12.923867 1.168665 31.285541 5.477093 41.950852 27.063887 45.511728 39.440784C674.900321 582.477596 665.05668 614.164606 642.674745 634.40463z" p-id="4389" fill="#1296db"></path></svg>