<?xml version="1.0" standalone="no"?><!DOCTYPE svg PUBLIC "-//W3C//DTD SVG 1.1//EN" "http://www.w3.org/Graphics/SVG/1.1/DTD/svg11.dtd"><svg t="1647260944042" class="icon" viewBox="0 0 1024 1024" version="1.1" xmlns="http://www.w3.org/2000/svg" p-id="6745" xmlns:xlink="http://www.w3.org/1999/xlink" width="200" height="200"><defs><style type="text/css"></style></defs><path d="M676.750222 1021.724444c-21.333333 0-45.169778-2.446222-70.428444-5.12-60.245333-6.200889-128.512-6.200889-188.700444 0-25.258667 2.673778-49.095111 5.12-70.428444 5.12-22.698667 0-55.580444-2.446222-79.132444-23.836444-20.878222-18.944-31.004444-49.038222-31.004444-91.989333L237.056 503.011556c0-161.223111 132.892444-161.223111 273.635556-161.223111 143.416889 0 276.366222 0 276.366222 161.223111l0 402.887111C787.000889 1009.720889 724.138667 1021.724444 676.750222 1021.724444zM512 967.566222c35.328 0 69.006222 3.527111 98.816 6.599111 24.234667 2.56 46.421333 4.892444 65.991111 4.892444 45.795556 0 67.584-10.922667 67.584-73.159111L744.391111 503.011556c0-113.265778-79.246222-118.556444-231.025778-118.556444-154.396444 0-233.585778 5.290667-233.585778 118.556444l0 402.887111c0 30.264889 5.575111 50.005333 17.009778 60.416 17.180444 15.530667 61.610667 13.710222 116.451556 7.907556C442.936889 971.036444 476.672 967.566222 512 967.566222z" p-id="6746" fill="#1296db"></path><path d="M702.805333 379.221333l-42.666667 0 0-66.56c0-86.528-66.446222-156.956444-148.138667-156.956444-81.692444 0-148.138667 70.428444-148.138667 156.956444l0 66.56-42.666667 0 0-66.56C321.194667 202.638222 406.755556 113.038222 512 113.038222s190.805333 89.543111 190.805333 199.623111L702.805333 379.221333z" p-id="6747" fill="#1296db"></path><path d="M597.390222 158.094222l-42.666667 0c0-55.978667-5.006222-113.152-42.097778-113.152-37.091556 0-42.097778 57.173333-42.097778 113.152l-42.666667 0c0-46.648889 0-155.818667 84.764444-155.818667C597.390222 2.275556 597.390222 111.445333 597.390222 158.094222z" p-id="6748" fill="#1296db"></path><path d="M560.298667 569.912889l194.673778 0 0 42.666667-194.673778 0 0-42.666667Z" p-id="6749" fill="#1296db"></path><path d="M555.861333 665.884444l194.616889 0 0 42.666667-194.616889 0 0-42.666667Z" p-id="6750" fill="#1296db"></path><path d="M560.298667 761.912889l194.673778 0 0 42.666667-194.673778 0 0-42.666667Z" p-id="6751" fill="#1296db"></path></svg>